# xmcd CD database file
#
# Track frame offsets:
#	150
#	1707
#	19244
#	38614
#	57152
#	75355
#	93552
#	109595
#	127830
#	143145
#	160006
#	176632
#	193875
#
# Disc length: 2623 seconds
#
# Revision: 0
# Processed by: cddbd v1.5.2PL0 Copyright (c) Steve Scherf et al.
# Submitted via: CDex 1.51
#
DISCID=950a3d0d
DTITLE=DJ Ötzi - Anton, Das Album
DYEAR=2000
DGENRE=Schlager
TTITLE0=Intro
TTITLE1=Anton Aus Tirol
TTITLE2=Gemma Bier Trinken
TTITLE3=Wo Der Handschlag No Zählt
TTITLE4=On Senorita!
TTITLE5=Never Stop The Alpenpop
TTITLE6=Sag, Kannst Du Mir No An Hunderter Borg´n
TTITLE7=Aha, Aha, Aha
TTITLE8=Mei Lederhos´n Tausch I Net
TTITLE9=Der Schnee Von Gestern
TTITLE10=Hey Mapl!
TTITLE11=Otztaler Hüttegaudi (Instrumental)
TTITLE12=In Die Berg Bin I Gern
EXTD=YEAR: 2000
EXTT0=
EXTT1=
EXTT2=
EXTT3=
EXTT4=
EXTT5=
EXTT6=
EXTT7=
EXTT8=
EXTT9=
EXTT10=
EXTT11=
EXTT12=
PLAYORDER=
